# Blender 4.1.0
# www.blender.org
mtllib flag.mtl
o Plane
v 0.000000 1.799515 1.000000
v -0.000000 -1.799515 1.000000
v 0.000000 1.799515 -1.000000
v -0.000000 -1.799515 -1.000000
v 0.000000 1.522667 1.000000
v 0.000000 1.245818 1.000000
v 0.000000 0.968970 1.000000
v 0.000000 0.692121 1.000000
v 0.000000 0.415273 1.000000
v 0.000000 0.138424 1.000000
v -0.000000 -0.138424 1.000000
v -0.000000 -0.415273 1.000000
v -0.000000 -0.692121 1.000000
v -0.000000 -0.968970 1.000000
v -0.000000 -1.245818 1.000000
v -0.000000 -1.522667 1.000000
v -0.000000 -1.522667 -1.000000
v -0.000000 -1.245818 -1.000000
v -0.000000 -0.968970 -1.000000
v -0.000000 -0.692121 -1.000000
v -0.000000 -0.415273 -1.000000
v -0.000000 -0.138424 -1.000000
v 0.000000 0.138424 -1.000000
v 0.000000 0.415273 -1.000000
v 0.000000 0.692121 -1.000000
v 0.000000 0.968970 -1.000000
v 0.000000 1.245818 -1.000000
v 0.000000 1.522667 -1.000000
v 0.000000 1.799515 -0.846154
v 0.000000 1.799515 -0.692308
v 0.000000 1.799515 -0.538462
v 0.000000 1.799515 -0.384615
v 0.000000 1.799515 -0.230769
v 0.000000 1.799515 -0.076923
v 0.000000 1.799515 0.076923
v 0.000000 1.799515 0.230769
v 0.000000 1.799515 0.384615
v 0.000000 1.799515 0.538462
v 0.000000 1.799515 0.692308
v 0.000000 1.799515 0.846154
v -0.000000 -1.799515 0.846154
v -0.000000 -1.799515 0.692308
v -0.000000 -1.799515 0.538462
v -0.000000 -1.799515 0.384615
v -0.000000 -1.799515 0.230769
v -0.000000 -1.799515 0.076923
v -0.000000 -1.799515 -0.076923
v -0.000000 -1.799515 -0.230769
v -0.000000 -1.799515 -0.384615
v -0.000000 -1.799515 -0.538462
v -0.000000 -1.799515 -0.692308
v -0.000000 -1.799515 -0.846154
v 0.000000 1.522667 0.846154
v 0.000000 1.522667 0.692308
v 0.000000 1.522667 0.538462
v 0.000000 1.522667 0.384615
v 0.000000 1.522667 0.230769
v 0.000000 1.522667 0.076923
v 0.000000 1.522667 -0.076923
v 0.000000 1.522667 -0.230769
v 0.000000 1.522667 -0.384615
v 0.000000 1.522667 -0.538462
v 0.000000 1.522667 -0.692308
v 0.000000 1.522667 -0.846154
v 0.000000 1.245818 0.846154
v 0.000000 1.245818 0.692308
v 0.000000 1.245818 0.538462
v 0.000000 1.245818 0.384615
v 0.000000 1.245818 0.230769
v 0.000000 1.245818 0.076923
v 0.000000 1.245818 -0.076923
v 0.000000 1.245818 -0.230769
v 0.000000 1.245818 -0.384615
v 0.000000 1.245818 -0.538462
v 0.000000 1.245818 -0.692308
v 0.000000 1.245818 -0.846154
v 0.000000 0.968970 0.846154
v 0.000000 0.968970 0.692308
v 0.000000 0.968970 0.538462
v 0.000000 0.968970 0.384615
v 0.000000 0.968970 0.230769
v 0.000000 0.968970 0.076923
v 0.000000 0.968970 -0.076923
v 0.000000 0.968970 -0.230769
v 0.000000 0.968970 -0.384615
v 0.000000 0.968970 -0.538462
v 0.000000 0.968970 -0.692308
v 0.000000 0.968970 -0.846154
v 0.000000 0.692121 0.846154
v 0.000000 0.692121 0.692308
v 0.000000 0.692121 0.538462
v 0.000000 0.692121 0.384615
v 0.000000 0.692121 0.230769
v 0.000000 0.692121 0.076923
v 0.000000 0.692121 -0.076923
v 0.000000 0.692121 -0.230769
v 0.000000 0.692121 -0.384615
v 0.000000 0.692121 -0.538462
v 0.000000 0.692121 -0.692308
v 0.000000 0.692121 -0.846154
v 0.000000 0.415273 0.846154
v 0.000000 0.415273 0.692308
v 0.000000 0.415273 0.538462
v 0.000000 0.415273 0.384615
v 0.000000 0.415273 0.230769
v 0.000000 0.415273 0.076923
v 0.000000 0.415273 -0.076923
v 0.000000 0.415273 -0.230769
v 0.000000 0.415273 -0.384615
v 0.000000 0.415273 -0.538462
v 0.000000 0.415273 -0.692308
v 0.000000 0.415273 -0.846154
v 0.000000 0.138424 0.846154
v 0.000000 0.138424 0.692308
v 0.000000 0.138424 0.538462
v 0.000000 0.138424 0.384615
v 0.000000 0.138424 0.230769
v 0.000000 0.138424 0.076923
v 0.000000 0.138424 -0.076923
v 0.000000 0.138424 -0.230769
v 0.000000 0.138424 -0.384615
v 0.000000 0.138424 -0.538462
v 0.000000 0.138424 -0.692308
v 0.000000 0.138424 -0.846154
v -0.000000 -0.138424 0.846154
v -0.000000 -0.138424 0.692308
v -0.000000 -0.138424 0.538462
v -0.000000 -0.138424 0.384615
v -0.000000 -0.138424 0.230769
v -0.000000 -0.138424 0.076923
v -0.000000 -0.138424 -0.076923
v -0.000000 -0.138424 -0.230769
v -0.000000 -0.138424 -0.384615
v -0.000000 -0.138424 -0.538462
v -0.000000 -0.138424 -0.692308
v -0.000000 -0.138424 -0.846154
v -0.000000 -0.415273 0.846154
v -0.000000 -0.415273 0.692308
v -0.000000 -0.415273 0.538462
v -0.000000 -0.415273 0.384615
v -0.000000 -0.415273 0.230769
v -0.000000 -0.415273 0.076923
v -0.000000 -0.415273 -0.076923
v -0.000000 -0.415273 -0.230769
v -0.000000 -0.415273 -0.384615
v -0.000000 -0.415273 -0.538462
v -0.000000 -0.415273 -0.692308
v -0.000000 -0.415273 -0.846154
v -0.000000 -0.692121 0.846154
v -0.000000 -0.692121 0.692308
v -0.000000 -0.692121 0.538462
v -0.000000 -0.692121 0.384615
v -0.000000 -0.692121 0.230769
v -0.000000 -0.692121 0.076923
v -0.000000 -0.692121 -0.076923
v -0.000000 -0.692121 -0.230769
v -0.000000 -0.692121 -0.384615
v -0.000000 -0.692121 -0.538462
v -0.000000 -0.692121 -0.692308
v -0.000000 -0.692121 -0.846154
v -0.000000 -0.968970 0.846154
v -0.000000 -0.968970 0.692308
v -0.000000 -0.968970 0.538462
v -0.000000 -0.968970 0.384615
v -0.000000 -0.968970 0.230769
v -0.000000 -0.968970 0.076923
v -0.000000 -0.968970 -0.076923
v -0.000000 -0.968970 -0.230769
v -0.000000 -0.968970 -0.384615
v -0.000000 -0.968970 -0.538462
v -0.000000 -0.968970 -0.692308
v -0.000000 -0.968970 -0.846154
v -0.000000 -1.245818 0.846154
v -0.000000 -1.245818 0.692308
v -0.000000 -1.245818 0.538462
v -0.000000 -1.245818 0.384615
v -0.000000 -1.245818 0.230769
v -0.000000 -1.245818 0.076923
v -0.000000 -1.245818 -0.076923
v -0.000000 -1.245818 -0.230769
v -0.000000 -1.245818 -0.384615
v -0.000000 -1.245818 -0.538462
v -0.000000 -1.245818 -0.692308
v -0.000000 -1.245818 -0.846154
v -0.000000 -1.522667 0.846154
v -0.000000 -1.522667 0.692308
v -0.000000 -1.522667 0.538462
v -0.000000 -1.522667 0.384615
v -0.000000 -1.522667 0.230769
v -0.000000 -1.522667 0.076923
v -0.000000 -1.522667 -0.076923
v -0.000000 -1.522667 -0.230769
v -0.000000 -1.522667 -0.384615
v -0.000000 -1.522667 -0.538462
v -0.000000 -1.522667 -0.692308
v -0.000000 -1.522667 -0.846154
vn 1.0000 -0.0000 -0.0000
vt 0.923077 0.923077
vt 1.000000 0.923077
vt 1.000000 1.000000
vt 0.923077 1.000000
vt 0.000000 0.923077
vt 0.076923 0.923077
vt 0.076923 1.000000
vt 0.000000 1.000000
vt 0.153846 0.923077
vt 0.153846 1.000000
vt 0.230769 0.923077
vt 0.230769 1.000000
vt 0.307692 0.923077
vt 0.307692 1.000000
vt 0.384615 0.923077
vt 0.384615 1.000000
vt 0.461538 0.923077
vt 0.461538 1.000000
vt 0.538462 0.923077
vt 0.538462 1.000000
vt 0.615385 0.923077
vt 0.615385 1.000000
vt 0.692308 0.923077
vt 0.692308 1.000000
vt 0.769231 0.923077
vt 0.769231 1.000000
vt 0.846154 0.923077
vt 0.846154 1.000000
vt 0.846154 0.000000
vt 0.923077 0.000000
vt 0.923077 0.076923
vt 0.846154 0.076923
vt 0.923077 0.153846
vt 0.846154 0.153846
vt 0.923077 0.230769
vt 0.846154 0.230769
vt 0.923077 0.307692
vt 0.846154 0.307692
vt 0.923077 0.384615
vt 0.846154 0.384615
vt 0.923077 0.461538
vt 0.846154 0.461538
vt 0.923077 0.538462
vt 0.846154 0.538462
vt 0.923077 0.615385
vt 0.846154 0.615385
vt 0.923077 0.692308
vt 0.846154 0.692308
vt 0.923077 0.769231
vt 0.846154 0.769231
vt 0.923077 0.846154
vt 0.846154 0.846154
vt 0.769231 0.000000
vt 0.769231 0.076923
vt 0.769231 0.153846
vt 0.769231 0.230769
vt 0.769231 0.307692
vt 0.769231 0.384615
vt 0.769231 0.461538
vt 0.769231 0.538462
vt 0.769231 0.615385
vt 0.769231 0.692308
vt 0.769231 0.769231
vt 0.769231 0.846154
vt 0.692308 0.000000
vt 0.692308 0.076923
vt 0.692308 0.153846
vt 0.692308 0.230769
vt 0.692308 0.307692
vt 0.692308 0.384615
vt 0.692308 0.461538
vt 0.692308 0.538462
vt 0.692308 0.615385
vt 0.692308 0.692308
vt 0.692308 0.769231
vt 0.692308 0.846154
vt 0.615385 0.000000
vt 0.615385 0.076923
vt 0.615385 0.153846
vt 0.615385 0.230769
vt 0.615385 0.307692
vt 0.615385 0.384615
vt 0.615385 0.461538
vt 0.615385 0.538462
vt 0.615385 0.615385
vt 0.615385 0.692308
vt 0.615385 0.769231
vt 0.615385 0.846154
vt 0.538462 0.000000
vt 0.538462 0.076923
vt 0.538462 0.153846
vt 0.538462 0.230769
vt 0.538462 0.307692
vt 0.538462 0.384615
vt 0.538462 0.461538
vt 0.538462 0.538462
vt 0.538462 0.615385
vt 0.538462 0.692308
vt 0.538462 0.769231
vt 0.538462 0.846154
vt 0.461538 0.000000
vt 0.461538 0.076923
vt 0.461538 0.153846
vt 0.461538 0.230769
vt 0.461538 0.307692
vt 0.461538 0.384615
vt 0.461538 0.461538
vt 0.461538 0.538462
vt 0.461538 0.615385
vt 0.461538 0.692308
vt 0.461538 0.769231
vt 0.461538 0.846154
vt 0.384615 0.000000
vt 0.384615 0.076923
vt 0.384615 0.153846
vt 0.384615 0.230769
vt 0.384615 0.307692
vt 0.384615 0.384615
vt 0.384615 0.461538
vt 0.384615 0.538462
vt 0.384615 0.615385
vt 0.384615 0.692308
vt 0.384615 0.769231
vt 0.384615 0.846154
vt 0.307692 0.000000
vt 0.307692 0.076923
vt 0.307692 0.153846
vt 0.307692 0.230769
vt 0.307692 0.307692
vt 0.307692 0.384615
vt 0.307692 0.461538
vt 0.307692 0.538462
vt 0.307692 0.615385
vt 0.307692 0.692308
vt 0.307692 0.769231
vt 0.307692 0.846154
vt 0.230769 0.000000
vt 0.230769 0.076923
vt 0.230769 0.153846
vt 0.230769 0.230769
vt 0.230769 0.307692
vt 0.230769 0.384615
vt 0.230769 0.461538
vt 0.230769 0.538462
vt 0.230769 0.615385
vt 0.230769 0.692308
vt 0.230769 0.769231
vt 0.230769 0.846154
vt 0.153846 0.000000
vt 0.153846 0.076923
vt 0.153846 0.153846
vt 0.153846 0.230769
vt 0.153846 0.307692
vt 0.153846 0.384615
vt 0.153846 0.461538
vt 0.153846 0.538462
vt 0.153846 0.615385
vt 0.153846 0.692308
vt 0.153846 0.769231
vt 0.153846 0.846154
vt 0.076923 0.000000
vt 0.076923 0.076923
vt 0.076923 0.153846
vt 0.076923 0.230769
vt 0.076923 0.307692
vt 0.076923 0.384615
vt 0.076923 0.461538
vt 0.076923 0.538462
vt 0.076923 0.615385
vt 0.076923 0.692308
vt 0.076923 0.769231
vt 0.076923 0.846154
vt 0.000000 0.000000
vt 0.000000 0.076923
vt 0.000000 0.153846
vt 0.000000 0.230769
vt 0.000000 0.307692
vt 0.000000 0.384615
vt 0.000000 0.461538
vt 0.000000 0.538461
vt 0.000000 0.615385
vt 0.000000 0.692308
vt 0.000000 0.769231
vt 0.000000 0.846154
vt 1.000000 0.000000
vt 1.000000 0.076923
vt 1.000000 0.153846
vt 1.000000 0.230769
vt 1.000000 0.307692
vt 1.000000 0.384615
vt 1.000000 0.461538
vt 1.000000 0.538462
vt 1.000000 0.615385
vt 1.000000 0.692308
vt 1.000000 0.769231
vt 1.000000 0.846154
s 0
f 196/1/1 52/2/1 4/3/1 17/4/1
f 29/5/1 64/6/1 28/7/1 3/8/1
f 64/6/1 76/9/1 27/10/1 28/7/1
f 76/9/1 88/11/1 26/12/1 27/10/1
f 88/11/1 100/13/1 25/14/1 26/12/1
f 100/13/1 112/15/1 24/16/1 25/14/1
f 112/15/1 124/17/1 23/18/1 24/16/1
f 124/17/1 136/19/1 22/20/1 23/18/1
f 136/19/1 148/21/1 21/22/1 22/20/1
f 148/21/1 160/23/1 20/24/1 21/22/1
f 160/23/1 172/25/1 19/26/1 20/24/1
f 172/25/1 184/27/1 18/28/1 19/26/1
f 184/27/1 196/1/1 17/4/1 18/28/1
f 15/29/1 16/30/1 185/31/1 173/32/1
f 173/32/1 185/31/1 186/33/1 174/34/1
f 174/34/1 186/33/1 187/35/1 175/36/1
f 175/36/1 187/35/1 188/37/1 176/38/1
f 176/38/1 188/37/1 189/39/1 177/40/1
f 177/40/1 189/39/1 190/41/1 178/42/1
f 178/42/1 190/41/1 191/43/1 179/44/1
f 179/44/1 191/43/1 192/45/1 180/46/1
f 180/46/1 192/45/1 193/47/1 181/48/1
f 181/48/1 193/47/1 194/49/1 182/50/1
f 182/50/1 194/49/1 195/51/1 183/52/1
f 183/52/1 195/51/1 196/1/1 184/27/1
f 14/53/1 15/29/1 173/32/1 161/54/1
f 161/54/1 173/32/1 174/34/1 162/55/1
f 162/55/1 174/34/1 175/36/1 163/56/1
f 163/56/1 175/36/1 176/38/1 164/57/1
f 164/57/1 176/38/1 177/40/1 165/58/1
f 165/58/1 177/40/1 178/42/1 166/59/1
f 166/59/1 178/42/1 179/44/1 167/60/1
f 167/60/1 179/44/1 180/46/1 168/61/1
f 168/61/1 180/46/1 181/48/1 169/62/1
f 169/62/1 181/48/1 182/50/1 170/63/1
f 170/63/1 182/50/1 183/52/1 171/64/1
f 171/64/1 183/52/1 184/27/1 172/25/1
f 13/65/1 14/53/1 161/54/1 149/66/1
f 149/66/1 161/54/1 162/55/1 150/67/1
f 150/67/1 162/55/1 163/56/1 151/68/1
f 151/68/1 163/56/1 164/57/1 152/69/1
f 152/69/1 164/57/1 165/58/1 153/70/1
f 153/70/1 165/58/1 166/59/1 154/71/1
f 154/71/1 166/59/1 167/60/1 155/72/1
f 155/72/1 167/60/1 168/61/1 156/73/1
f 156/73/1 168/61/1 169/62/1 157/74/1
f 157/74/1 169/62/1 170/63/1 158/75/1
f 158/75/1 170/63/1 171/64/1 159/76/1
f 159/76/1 171/64/1 172/25/1 160/23/1
f 12/77/1 13/65/1 149/66/1 137/78/1
f 137/78/1 149/66/1 150/67/1 138/79/1
f 138/79/1 150/67/1 151/68/1 139/80/1
f 139/80/1 151/68/1 152/69/1 140/81/1
f 140/81/1 152/69/1 153/70/1 141/82/1
f 141/82/1 153/70/1 154/71/1 142/83/1
f 142/83/1 154/71/1 155/72/1 143/84/1
f 143/84/1 155/72/1 156/73/1 144/85/1
f 144/85/1 156/73/1 157/74/1 145/86/1
f 145/86/1 157/74/1 158/75/1 146/87/1
f 146/87/1 158/75/1 159/76/1 147/88/1
f 147/88/1 159/76/1 160/23/1 148/21/1
f 11/89/1 12/77/1 137/78/1 125/90/1
f 125/90/1 137/78/1 138/79/1 126/91/1
f 126/91/1 138/79/1 139/80/1 127/92/1
f 127/92/1 139/80/1 140/81/1 128/93/1
f 128/93/1 140/81/1 141/82/1 129/94/1
f 129/94/1 141/82/1 142/83/1 130/95/1
f 130/95/1 142/83/1 143/84/1 131/96/1
f 131/96/1 143/84/1 144/85/1 132/97/1
f 132/97/1 144/85/1 145/86/1 133/98/1
f 133/98/1 145/86/1 146/87/1 134/99/1
f 134/99/1 146/87/1 147/88/1 135/100/1
f 135/100/1 147/88/1 148/21/1 136/19/1
f 10/101/1 11/89/1 125/90/1 113/102/1
f 113/102/1 125/90/1 126/91/1 114/103/1
f 114/103/1 126/91/1 127/92/1 115/104/1
f 115/104/1 127/92/1 128/93/1 116/105/1
f 116/105/1 128/93/1 129/94/1 117/106/1
f 117/106/1 129/94/1 130/95/1 118/107/1
f 118/107/1 130/95/1 131/96/1 119/108/1
f 119/108/1 131/96/1 132/97/1 120/109/1
f 120/109/1 132/97/1 133/98/1 121/110/1
f 121/110/1 133/98/1 134/99/1 122/111/1
f 122/111/1 134/99/1 135/100/1 123/112/1
f 123/112/1 135/100/1 136/19/1 124/17/1
f 9/113/1 10/101/1 113/102/1 101/114/1
f 101/114/1 113/102/1 114/103/1 102/115/1
f 102/115/1 114/103/1 115/104/1 103/116/1
f 103/116/1 115/104/1 116/105/1 104/117/1
f 104/117/1 116/105/1 117/106/1 105/118/1
f 105/118/1 117/106/1 118/107/1 106/119/1
f 106/119/1 118/107/1 119/108/1 107/120/1
f 107/120/1 119/108/1 120/109/1 108/121/1
f 108/121/1 120/109/1 121/110/1 109/122/1
f 109/122/1 121/110/1 122/111/1 110/123/1
f 110/123/1 122/111/1 123/112/1 111/124/1
f 111/124/1 123/112/1 124/17/1 112/15/1
f 8/125/1 9/113/1 101/114/1 89/126/1
f 89/126/1 101/114/1 102/115/1 90/127/1
f 90/127/1 102/115/1 103/116/1 91/128/1
f 91/128/1 103/116/1 104/117/1 92/129/1
f 92/129/1 104/117/1 105/118/1 93/130/1
f 93/130/1 105/118/1 106/119/1 94/131/1
f 94/131/1 106/119/1 107/120/1 95/132/1
f 95/132/1 107/120/1 108/121/1 96/133/1
f 96/133/1 108/121/1 109/122/1 97/134/1
f 97/134/1 109/122/1 110/123/1 98/135/1
f 98/135/1 110/123/1 111/124/1 99/136/1
f 99/136/1 111/124/1 112/15/1 100/13/1
f 7/137/1 8/125/1 89/126/1 77/138/1
f 77/138/1 89/126/1 90/127/1 78/139/1
f 78/139/1 90/127/1 91/128/1 79/140/1
f 79/140/1 91/128/1 92/129/1 80/141/1
f 80/141/1 92/129/1 93/130/1 81/142/1
f 81/142/1 93/130/1 94/131/1 82/143/1
f 82/143/1 94/131/1 95/132/1 83/144/1
f 83/144/1 95/132/1 96/133/1 84/145/1
f 84/145/1 96/133/1 97/134/1 85/146/1
f 85/146/1 97/134/1 98/135/1 86/147/1
f 86/147/1 98/135/1 99/136/1 87/148/1
f 87/148/1 99/136/1 100/13/1 88/11/1
f 6/149/1 7/137/1 77/138/1 65/150/1
f 65/150/1 77/138/1 78/139/1 66/151/1
f 66/151/1 78/139/1 79/140/1 67/152/1
f 67/152/1 79/140/1 80/141/1 68/153/1
f 68/153/1 80/141/1 81/142/1 69/154/1
f 69/154/1 81/142/1 82/143/1 70/155/1
f 70/155/1 82/143/1 83/144/1 71/156/1
f 71/156/1 83/144/1 84/145/1 72/157/1
f 72/157/1 84/145/1 85/146/1 73/158/1
f 73/158/1 85/146/1 86/147/1 74/159/1
f 74/159/1 86/147/1 87/148/1 75/160/1
f 75/160/1 87/148/1 88/11/1 76/9/1
f 5/161/1 6/149/1 65/150/1 53/162/1
f 53/162/1 65/150/1 66/151/1 54/163/1
f 54/163/1 66/151/1 67/152/1 55/164/1
f 55/164/1 67/152/1 68/153/1 56/165/1
f 56/165/1 68/153/1 69/154/1 57/166/1
f 57/166/1 69/154/1 70/155/1 58/167/1
f 58/167/1 70/155/1 71/156/1 59/168/1
f 59/168/1 71/156/1 72/157/1 60/169/1
f 60/169/1 72/157/1 73/158/1 61/170/1
f 61/170/1 73/158/1 74/159/1 62/171/1
f 62/171/1 74/159/1 75/160/1 63/172/1
f 63/172/1 75/160/1 76/9/1 64/6/1
f 1/173/1 5/161/1 53/162/1 40/174/1
f 40/174/1 53/162/1 54/163/1 39/175/1
f 39/175/1 54/163/1 55/164/1 38/176/1
f 38/176/1 55/164/1 56/165/1 37/177/1
f 37/177/1 56/165/1 57/166/1 36/178/1
f 36/178/1 57/166/1 58/167/1 35/179/1
f 35/179/1 58/167/1 59/168/1 34/180/1
f 34/180/1 59/168/1 60/169/1 33/181/1
f 33/181/1 60/169/1 61/170/1 32/182/1
f 32/182/1 61/170/1 62/171/1 31/183/1
f 31/183/1 62/171/1 63/172/1 30/184/1
f 30/184/1 63/172/1 64/6/1 29/5/1
f 16/30/1 2/185/1 41/186/1 185/31/1
f 185/31/1 41/186/1 42/187/1 186/33/1
f 186/33/1 42/187/1 43/188/1 187/35/1
f 187/35/1 43/188/1 44/189/1 188/37/1
f 188/37/1 44/189/1 45/190/1 189/39/1
f 189/39/1 45/190/1 46/191/1 190/41/1
f 190/41/1 46/191/1 47/192/1 191/43/1
f 191/43/1 47/192/1 48/193/1 192/45/1
f 192/45/1 48/193/1 49/194/1 193/47/1
f 193/47/1 49/194/1 50/195/1 194/49/1
f 194/49/1 50/195/1 51/196/1 195/51/1
f 195/51/1 51/196/1 52/2/1 196/1/1
